<svg id="Capa_1" enable-background="new 0 0 487.24 487.24" height="512" viewBox="0 0 487.24 487.24" width="512" xmlns="http://www.w3.org/2000/svg"><g><path d="m259.89 98.024c27.14 0 49.142-22.002 49.142-49.142-2.589-65.186-95.706-65.167-98.284 0 0 27.141 22.002 49.142 49.142 49.142z"/><path d="m79.64 144.63h112.77v30h-112.77z"/><path d="m424.76 109.56-74.07 25.5-11.05 35.53 94.88-32.67z"/><path d="m124.77 349.97-72.05 72.06 21.21 21.21 72.06-72.05c-7.78-6.329-14.89-13.44-21.22-21.22z"/><path d="m266.73 487.24h30v-95.51c-9.6 4.21-19.65 7.37-30 9.42z"/><path d="m283.45 364.74c-63.483.857-114.542-45.146-130.92-105.64l-30.03 9.6c6.039 76.601 90.01 127.325 161.02 96.04z"/><path d="m316.3 144.63h-93.89v92.12l-41.27 13.2c12.685 48.248 51.664 85.409 102.311 84.79h28.099l-23.52-99.21c6.223-20.007 22.264-71.585 28.27-90.9z"/></g></svg>